<?xml version="1.0" encoding="UTF-8"?>
<svg version="1.1" xmlns="http://www.w3.org/2000/svg" width="48" height="48">
<path d="M0 0 C124.08 0 248.16 0 376 0 C376 36.3 376 72.6 376 110 C251.92 110 127.84 110 0 110 C0 73.7 0 37.4 0 0 Z " fill="#040505" transform="translate(0,0)"/>
<path d="M0 0 C0.85589722 0.00100708 1.71179443 0.00201416 2.59362793 0.00305176 C5.74863044 0.00822917 8.90361364 0.02218979 12.05859375 0.03515625 C19.13296875 0.05578125 26.20734375 0.07640625 33.49609375 0.09765625 C33.49609375 18.90765625 33.49609375 37.71765625 33.49609375 57.09765625 C48.67609375 57.09765625 63.85609375 57.09765625 79.49609375 57.09765625 C78.35504112 63.94397204 78.35504112 63.94397204 76.30859375 66.78515625 C75.92316406 67.34589844 75.53773438 67.90664062 75.140625 68.484375 C70.2777793 73.25481508 65.19532362 73.4389258 58.73562622 73.43754578 C57.60728363 73.42206192 56.47894104 73.40657806 55.31640625 73.390625 C54.14850555 73.38638016 52.98060486 73.38213531 51.77731323 73.37776184 C48.05833589 73.36101025 44.33990648 73.32336323 40.62109375 73.28515625 C38.09505993 73.27010492 35.56901758 73.2564173 33.04296875 73.24414062 C26.8604911 73.21111817 20.67833158 73.16095316 14.49609375 73.09765625 C14.16609375 71.11765625 13.83609375 69.13765625 13.49609375 67.09765625 C12.81546875 68.02578125 12.13484375 68.95390625 11.43359375 69.91015625 C8.89942346 73.36584301 5.47684508 74.80345656 1.49609375 76.09765625 C-1.23996998 76.41658286 -3.76579773 76.60737904 -6.5 76.64453125 C-7.25120621 76.66485413 -8.00241241 76.685177 -8.77638245 76.70611572 C-10.36207928 76.74612774 -11.94796024 76.77936168 -13.53393555 76.80615234 C-15.90415462 76.84701405 -18.27296067 76.90986838 -20.64257812 76.9765625 C-28.19316641 77.16529519 -35.74184323 77.18109605 -43.2890625 76.86328125 C-44.53695557 76.81461914 -45.78484863 76.76595703 -47.07055664 76.71582031 C-54.5576683 75.36778883 -59.10786573 69.89395236 -63.50390625 64.09765625 C-66.05536674 60.25813299 -68.41603694 56.32000995 -70.75390625 52.34765625 C-71.9656767 50.31014348 -73.17915201 48.27364343 -74.39453125 46.23828125 C-75.1839209 44.90071777 -75.1839209 44.90071777 -75.98925781 43.53613281 C-77.38716014 41.2856092 -78.87833965 39.18767045 -80.50390625 37.09765625 C-84.17523001 41.91548555 -86.6672462 46.42332096 -88.87890625 52.03515625 C-92.32589999 60.24838683 -95.81653216 66.62870925 -104.19140625 70.53515625 C-108.62165037 72.28994211 -112.47472076 73.23043839 -117.25390625 73.16015625 C-118.053125 73.15113281 -118.85234375 73.14210938 -119.67578125 73.1328125 C-120.2790625 73.12121094 -120.88234375 73.10960938 -121.50390625 73.09765625 C-119.8258307 68.28148462 -117.23828633 64.15843735 -114.56640625 59.84765625 C-114.07551514 59.05045166 -113.58462402 58.25324707 -113.07885742 57.43188477 C-109.01487894 50.86030365 -104.83692325 44.36677908 -100.6171875 37.89453125 C-98.1771983 34.14720184 -95.76481533 30.38287887 -93.359375 26.61328125 C-93.00003372 26.05020767 -92.64069244 25.48713409 -92.27046204 24.90699768 C-90.47770604 22.09728196 -88.68667613 19.28649418 -86.89770508 16.47436523 C-86.24181396 15.44641846 -85.58592285 14.41847168 -84.91015625 13.359375 C-84.32556641 12.44115967 -83.74097656 11.52294434 -83.13867188 10.5769043 C-80.15405692 6.05050572 -80.15405692 6.05050572 -78.50390625 4.09765625 C-77.84390625 4.09765625 -77.18390625 4.09765625 -76.50390625 4.09765625 C-75.27050781 5.69897461 -75.27050781 5.69897461 -73.89453125 7.9375 C-73.38664062 8.75412109 -72.87875 9.57074219 -72.35546875 10.41210938 C-71.82695313 11.27771484 -71.2984375 12.14332031 -70.75390625 13.03515625 C-69.71861186 14.71165683 -68.68215565 16.38744051 -67.64453125 18.0625 C-67.13083984 18.89765137 -66.61714844 19.73280273 -66.08789062 20.59326172 C-64.05964271 23.80006922 -61.89512952 26.90391639 -59.69433594 29.99438477 C-58.35269775 32.36481401 -57.9735174 34.4302649 -57.50390625 37.09765625 C-56.12620022 39.58406111 -56.12620022 39.58406111 -54.44140625 41.91015625 C-53.89355469 42.70035156 -53.34570312 43.49054687 -52.78125 44.3046875 C-52.35972656 44.89636719 -51.93820313 45.48804688 -51.50390625 46.09765625 C-51.6225 45.13085938 -51.74109375 44.1640625 -51.86328125 43.16796875 C-52.68401511 34.87855679 -52.73170065 28.5200863 -48.50390625 21.09765625 C-48.17519531 20.47632812 -47.84648438 19.855 -47.5078125 19.21484375 C-42.39121954 10.8558677 -32.2527834 5.05010509 -23.19140625 1.97265625 C-15.50493101 0.14874687 -7.87101493 -0.04454431 0 0 Z " fill="#BBBBBB" transform="translate(122.50390625,-0.09765625)"/>
<path d="M0 0 C36.96 0 73.92 0 112 0 C112 0.33 112 0.66 112 1 C111.2265625 1.10957031 110.453125 1.21914063 109.65625 1.33203125 C99.98340019 2.80450715 93.08255909 4.93984582 85.078125 10.59765625 C83 12 83 12 80.859375 12.93359375 C78.49067016 14.29211565 78.05950377 15.51721433 77 18 C76.37931641 18.99386719 76.37931641 18.99386719 75.74609375 20.0078125 C70.11473515 29.11884641 70.7209104 37.64921335 72 48 C69.7164285 45.20896817 67.48122575 42.38112695 65.3125 39.5 C64.89613281 38.9534375 64.47976562 38.406875 64.05078125 37.84375 C63 36 63 36 62.59570312 33.66186523 C61.95641821 30.80525726 60.99855213 29.01618909 59.41796875 26.56640625 C58.89783203 25.75236328 58.37769531 24.93832031 57.84179688 24.09960938 C57.29587891 23.26236328 56.74996094 22.42511719 56.1875 21.5625 C55.65318359 20.72912109 55.11886719 19.89574219 54.56835938 19.03710938 C52.29550615 15.50062804 49.99749861 11.98966027 47.61328125 8.52734375 C46 6 46 6 46 4 C43.26911823 6.59638988 41.10556706 9.13190674 39.109375 12.32421875 C38.5728833 13.17532227 38.0363916 14.02642578 37.48364258 14.90332031 C36.91154053 15.82209961 36.33943848 16.74087891 35.75 17.6875 C34.49922262 19.67611137 33.24789908 21.6643793 31.99609375 23.65234375 C31.34366699 24.69116699 30.69124023 25.72999023 30.01904297 26.80029297 C26.65059177 32.13849386 23.22703868 37.44121408 19.8125 42.75 C14.47986122 51.05121171 9.23952597 59.39828493 4.18481445 67.87207031 C3.14846516 69.59680949 2.07830753 71.30117747 1 73 C0.67 73 0.34 73 0 73 C0 48.91 0 24.82 0 0 Z " fill="#030403" transform="translate(0,0)"/>
<path d="M0 0 C3.63 0 7.26 0 11 0 C9.0283713 1.31441913 7.02817985 2.58714134 5 3.8125 C1.70412873 6.21573947 0.62784539 7.29056985 -1 11 C-1.47087073 14.73255701 -1.48875726 18.44831269 -1.51171875 22.20703125 C-1.52966995 23.28756271 -1.54762115 24.36809418 -1.56611633 25.48136902 C-1.62020263 28.92503992 -1.65411045 32.36857232 -1.6875 35.8125 C-1.72067447 38.15040989 -1.75516424 40.48830151 -1.79101562 42.82617188 C-1.87592819 48.55065706 -1.94428531 54.2751602 -2 60 C-6.25004671 60.07485856 -10.49973134 60.12893167 -14.75024414 60.16479492 C-16.19236955 60.17976508 -17.63445036 60.20014868 -19.07641602 60.22631836 C-28.42011679 60.39149297 -36.58165225 60.25100865 -44.8125 55.3125 C-51.06003688 48.70796101 -51.45744412 42.53490073 -51.53125 33.5859375 C-50.91927226 29.45508775 -49.46403029 27.3160329 -47 24 C-46.8453125 22.9171875 -46.8453125 22.9171875 -46.6875 21.8125 C-46 20 -46 20 -43.265625 18.41015625 C-36.81350977 15.78163806 -29.44540425 16.60207801 -22.60351562 16.6484375 C-13.80403724 16.52643433 -8.77441479 14.77441479 -2.5625 8.5625 C-0.79561124 5.66480244 -0.31238058 3.3580912 0 0 Z " fill="#050706" transform="translate(140,0)"/>
<path d="M0 0 C0.66 0 1.32 0 2 0 C3.24926758 1.6171875 3.24926758 1.6171875 4.64453125 3.875 C5.15693359 4.69613281 5.66933594 5.51726563 6.19726562 6.36328125 C6.73029297 7.23339844 7.26332031 8.10351562 7.8125 9 C8.33392578 9.83917969 8.85535156 10.67835937 9.39257812 11.54296875 C10.43072495 13.2148906 11.46478678 14.88935626 12.49462891 16.56640625 C13.48390124 18.16567102 14.48586864 19.75716504 15.50146484 21.33984375 C15.95859863 22.05269531 16.41573242 22.76554687 16.88671875 23.5 C17.29494873 24.1290625 17.70317871 24.758125 18.1237793 25.40625 C19 27 19 27 19 29 C17.98679688 28.95359375 16.97359375 28.9071875 15.9296875 28.859375 C14.57815468 28.82183242 13.22658972 28.78543494 11.875 28.75 C11.20984375 28.71648438 10.5446875 28.68296875 9.859375 28.6484375 C4.66906155 28.54666665 1.91145954 29.64112893 -2 33 C-5.95353605 37.48138271 -8.2047876 42.43083339 -10.375 47.9375 C-13.82199374 56.15073058 -17.31262591 62.531053 -25.6875 66.4375 C-30.11774412 68.19228586 -33.97081451 69.13278214 -38.75 69.0625 C-39.54921875 69.05347656 -40.3484375 69.04445313 -41.171875 69.03515625 C-41.77515625 69.02355469 -42.3784375 69.01195313 -43 69 C-41.32192445 64.18382837 -38.73438008 60.0607811 -36.0625 55.75 C-35.57160889 54.95279541 -35.08071777 54.15559082 -34.57495117 53.33422852 C-30.51097269 46.7626474 -26.333017 40.26912283 -22.11328125 33.796875 C-19.67329205 30.04954559 -17.26090908 26.28522262 -14.85546875 22.515625 C-14.49612747 21.95255142 -14.13678619 21.38947784 -13.76655579 20.80934143 C-11.97379979 17.99962571 -10.18276988 15.18883793 -8.39379883 12.37670898 C-7.73790771 11.34876221 -7.0820166 10.32081543 -6.40625 9.26171875 C-5.82166016 8.34350342 -5.23707031 7.42528809 -4.63476562 6.47924805 C-1.65015067 1.95284947 -1.65015067 1.95284947 0 0 Z " fill="#C7C7C7" transform="translate(44,4)"/>
<path d="M0 0 C1.94229492 0.00676758 1.94229492 0.00676758 3.92382812 0.01367188 C7.095101 0.02537399 10.26627546 0.04176887 13.4375 0.0625 C13.5711933 4.69706914 13.51042257 6.78212293 10.3125 10.25 C9.73242188 10.90355469 9.15234375 11.55710937 8.5546875 12.23046875 C1.3116005 18.49801083 -6.64631559 17.49676588 -15.734375 17.50195312 C-25.94493746 17.67331094 -33.74809519 19.6658184 -41.1875 26.890625 C-42.5625 28.0625 -42.5625 28.0625 -44.5625 28.0625 C-44.830625 28.59875 -45.09875 29.135 -45.375 29.6875 C-46.27503858 31.48757716 -47.19533507 33.27754333 -48.125 35.0625 C-50.40868168 39.82844438 -50.67796352 43.51614824 -50.625 48.8125 C-50.61146484 50.56820312 -50.61146484 50.56820312 -50.59765625 52.359375 C-50.58605469 53.25140625 -50.57445313 54.1434375 -50.5625 55.0625 C-56.27684754 48.30918017 -56.78846162 39.60196632 -56.5625 31.0625 C-55.72807235 27.39201171 -54.3977383 24.33760372 -52.5625 21.0625 C-52.23378906 20.43988281 -51.90507813 19.81726563 -51.56640625 19.17578125 C-46.44076583 10.82079961 -36.31432631 5.01595044 -27.25 1.9375 C-18.21761284 -0.20577831 -9.23220877 -0.06139065 0 0 Z " fill="#BCBCBC" transform="translate(126.5625,-0.0625)"/>
<path d="M0 0 C21.79432624 0 21.79432624 0 26.765625 4.65234375 C31.3670702 9.73758576 32.30366623 13.71001468 32.21484375 20.5 C31.69983983 26.49277294 28.37173206 30.161406 24 34 C20.9662399 35.83823272 18.76303596 36.24055174 15.234375 36.1953125 C14.43225586 36.19031738 13.63013672 36.18532227 12.80371094 36.18017578 C11.79598633 36.16196777 10.78826172 36.14375977 9.75 36.125 C6.5325 36.08375 3.315 36.0425 0 36 C0 24.12 0 12.24 0 0 Z " fill="#F8F8F8" transform="translate(211,35)"/>
<path d="M0 0 C2.9375 1.5 2.9375 1.5 5 3 C5.33 2.34 5.66 1.68 6 1 C8.31 1 10.62 1 13 1 C13.07435222 5.75053511 13.12869691 10.50072887 13.16479492 15.25170898 C13.17984876 16.86667789 13.20029648 18.48160613 13.22631836 20.09643555 C13.26285286 22.42246555 13.27976015 24.74795341 13.29296875 27.07421875 C13.30845261 27.79212082 13.32393646 28.51002289 13.33988953 29.24967957 C13.3413711 33.69798041 12.71870664 36.45746764 10 40 C6.20146509 42.97898799 3.27064023 43.40843907 -1.5 43.375 C-2.6034375 43.38273437 -3.706875 43.39046875 -4.84375 43.3984375 C-8.34183427 42.95684765 -10.19545891 42.10340582 -13 40 C-15 37 -15 37 -15 33 C-11.6875 32.8125 -11.6875 32.8125 -8 33 C-7.525625 33.495 -7.05125 33.99 -6.5625 34.5 C-5.08380221 36.21685954 -5.08380221 36.21685954 -2.73828125 36.29296875 C-1.53751953 36.24076172 -1.53751953 36.24076172 -0.3125 36.1875 C1.110625 36.125625 2.53375 36.06375 4 36 C4.33 33.03 4.66 30.06 5 27 C4.319375 27.495 3.63875 27.99 2.9375 28.5 C-0.70247525 30.35871077 -2.95462873 30.43343264 -7 30 C-11.1211663 28.17901954 -13.43373926 25.66608677 -16 22 C-17.35488172 17.93535485 -17.53762555 14.25014789 -17 10 C-12.79308527 2.16643465 -9.00705232 -0.62117602 0 0 Z " fill="#F6F6F6" transform="translate(278,42)"/>
<path d="M0 0 C0 18.81 0 37.62 0 57 C-5.45606708 55.90878658 -6.22458044 55.38005542 -9.4453125 51.375 C-15.6009006 41.97148854 -18.20555245 33.21735763 -18.3125 22.1875 C-18.34150391 21.20201172 -18.37050781 20.21652344 -18.40039062 19.20117188 C-18.45211063 13.27724263 -18.10577715 9.62269154 -14 5 C-9.08166527 1.28615541 -6.24117139 0 0 0 Z " fill="#B3B3B3" transform="translate(156,0)"/>
<path d="M0 0 C1.3303125 0.11794922 1.3303125 0.11794922 2.6875 0.23828125 C5 0.6875 5 0.6875 7 2.6875 C7.33 1.6975 7.66 0.7075 8 -0.3125 C10.64 -0.3125 13.28 -0.3125 16 -0.3125 C16 9.2575 16 18.8275 16 28.6875 C13.36 28.6875 10.72 28.6875 8 28.6875 C7.67 28.0275 7.34 27.3675 7 26.6875 C6.319375 27.1825 5.63875 27.6775 4.9375 28.1875 C1.25859625 30.06608915 -0.9091225 30.18988846 -5 29.6875 C-9.36751906 27.41974972 -12.11111973 25.26057855 -14 20.6875 C-15.03591406 15.89338609 -15.43990328 12.00720985 -13.875 7.3125 C-10.05529016 1.96490623 -6.50067647 -0.63306006 0 0 Z " fill="#EFEFEF" transform="translate(346,42.3125)"/>
<path d="M0 0 C2.64 0 5.28 0 8 0 C8 2.31 8 4.62 8 7 C9.98 7 11.96 7 14 7 C14 9.31 14 11.62 14 14 C12.02 14 10.04 14 8 14 C8 19.28 8 24.56 8 30 C9.98 30 11.96 30 14 30 C14 31.98 14 33.96 14 36 C12.41906283 36.1357675 10.83473048 36.23234745 9.25 36.3125 C8.36828125 36.37050781 7.4865625 36.42851563 6.578125 36.48828125 C4 36 4 36 1.6875 34.0625 C-0.63825645 29.84168273 -0.44408763 26.41651967 -0.25 21.6875 C-0.23195313 20.85154297 -0.21390625 20.01558594 -0.1953125 19.15429688 C-0.14841126 17.10236772 -0.07667411 15.05103244 0 13 C-0.99 13 -1.98 13 -3 13 C-3 11.35 -3 9.7 -3 8 C-2.01 8 -1.02 8 0 8 C0 5.36 0 2.72 0 0 Z " fill="#EEEEEE" transform="translate(314,35)"/>
<path d="M0 0 C10.31428571 0 10.31428571 0 15 4 C17.83909637 8.25864456 17.51085825 12.00316775 17 17 C15.71318245 20.25090749 14.82315295 21.491582 11.875 23.3125 C9 24 9 24 0 24 C0 16.08 0 8.16 0 0 Z " fill="#080A09" transform="translate(218,41)"/>
<path d="M0 0 C2.31 0 4.62 0 7 0 C7 12.54 7 25.08 7 38 C4.69 38 2.38 38 0 38 C0 25.46 0 12.92 0 0 Z " fill="#FFFFFF" transform="translate(369,33)"/>
<path d="M0 0 C2.64 0 5.28 0 8 0 C8 9.57 8 19.14 8 29 C5.36 29 2.72 29 0 29 C0 19.43 0 9.86 0 0 Z " fill="#EBEBEB" transform="translate(298,42)"/>
<path d="M0 0 C2.64 0 5.28 0 8 0 C8 9.57 8 19.14 8 29 C5.36 29 2.72 29 0 29 C0 19.43 0 9.86 0 0 Z " fill="#E3E3E3" transform="translate(248,42)"/>
<path d="M0 0 C1.94140625 0.37890625 1.94140625 0.37890625 4.44140625 1.94140625 C6.5345224 5.34272 6.4928831 7.44963368 5.94140625 11.37890625 C4.37890625 14.31640625 4.37890625 14.31640625 1.94140625 16.37890625 C-1.99170502 17.01101342 -4.08326443 16.97910891 -7.49609375 14.87890625 C-9.7069233 11.34157897 -9.71632674 8.44186445 -9.05859375 4.37890625 C-7.28540878 -0.05405619 -4.60144714 -0.26269772 0 0 Z " fill="#060807" transform="translate(348.05859375,48.62109375)"/>
<path d="M0 0 C1.94140625 0.4140625 1.94140625 0.4140625 4.44140625 2.5390625 C6.20879929 5.92656583 6.56915195 7.6475883 5.94140625 11.4140625 C4.37890625 14.2890625 4.37890625 14.2890625 1.94140625 16.4140625 C-1.95985427 17.0410508 -4.07552758 16.99381947 -7.49609375 14.9765625 C-9.74054633 11.29566026 -9.91966336 7.62632194 -9.05859375 3.4140625 C-6.58525381 0.04338277 -4.13930195 -0.16770652 0 0 Z " fill="#080908" transform="translate(278.05859375,48.5859375)"/>
<path d="M0 0 C0.05402274 2.10388569 0.09280256 4.20816714 0.125 6.3125 C0.14820313 7.48425781 0.17140625 8.65601562 0.1953125 9.86328125 C0 13 0 13 -2 16 C-5.125 16.1875 -5.125 16.1875 -8 16 C-8.66 14.68 -9.32 13.36 -10 12 C-7.69 12.33 -5.38 12.66 -3 13 C-3 12.34 -3 11.68 -3 11 C-3.78375 11.04125 -4.5675 11.0825 -5.375 11.125 C-8 11 -8 11 -10 9 C-10.1875 5.4375 -10.1875 5.4375 -10 2 C-7.75858472 -0.24141528 -3.06492894 0 0 0 Z " fill="#CACACA" transform="translate(236,94)"/>
<path d="M0 0 C0.66 0.99 1.32 1.98 2 3 C2.33 2.01 2.66 1.02 3 0 C3.99 0.33 4.98 0.66 6 1 C5.67 3.97 5.34 6.94 5 10 C4.34 10 3.68 10 3 10 C2.67 9.34 2.34 8.68 2 8 C1.01 8.66 0.02 9.32 -1 10 C-4.6875 9.625 -4.6875 9.625 -8 9 C-9.32561852 2.61292897 -9.32561852 2.61292897 -7.9375 0 C-4.99948754 -1.51639353 -3.09843192 -0.92293717 0 0 Z " fill="#DCDCDC" transform="translate(307,95)"/>
<path d="M0 0 C7 0 7 0 8.9375 1.125 C10.48138276 3.84949899 10.3267107 5.92891945 10 9 C8 11 8 11 5.375 11.125 C4.59125 11.08375 3.8075 11.0425 3 11 C2.67 12.65 2.34 14.3 2 16 C1.34 16 0.68 16 0 16 C0 10.72 0 5.44 0 0 Z " fill="#CCCDCC" transform="translate(330,94)"/>
<path d="M0 0 C6.0546875 -0.1953125 6.0546875 -0.1953125 8 0 C10 2 10 2 10.25 5 C10 8 10 8 8 10 C5.375 10.125 5.375 10.125 3 10 C2.67 11.65 2.34 13.3 2 15 C1.34 15 0.68 15 0 15 C0 10.05 0 5.1 0 0 Z " fill="#D3D4D3" transform="translate(270,95)"/>
<path d="M0 0 C0 3.63 0 7.26 0 11 C-6.0546875 11.1953125 -6.0546875 11.1953125 -8 11 C-10 9 -10 9 -10.3125 5.5 C-10.209375 4.345 -10.10625 3.19 -10 2 C-6.3558226 -0.4294516 -4.28758728 -0.16179575 0 0 Z " fill="#D3D4D4" transform="translate(148,94)"/>
<path d="M0 0 C0.66 0 1.32 0 2 0 C2.66 2.31 3.32 4.62 4 7 C4.66 7 5.32 7 6 7 C6.144375 6.21625 6.28875 5.4325 6.4375 4.625 C7 2 7 2 8 0 C8.66 0 9.32 0 10 0 C10 5.28 10 10.56 10 16 C7.36 16 4.72 16 2 16 C2.226875 15.21625 2.45375 14.4325 2.6875 13.625 C3.11695428 8.6433304 1.63235458 4.66650517 0 0 Z " fill="#121413" transform="translate(366,94)"/>
<path d="M0 0 C0 3.63 0 7.26 0 11 C-6.0546875 11.1953125 -6.0546875 11.1953125 -8 11 C-10 9 -10 9 -10.25 6 C-10 3 -10 3 -8 1 C-5.29913367 0.43731951 -2.7611525 0 0 0 Z " fill="#D4D5D4" transform="translate(352,94)"/>
<path d="M0 0 C2.875 0.75 2.875 0.75 3.875 1.75 C4.0625 5.1875 4.0625 5.1875 3.875 8.75 C1.875 10.75 1.875 10.75 -0.5625 11.0625 C-3.125 10.75 -3.125 10.75 -4.9375 9.5625 C-6.55025784 7.10092224 -6.5584014 5.63934264 -6.125 2.75 C-4.319333 -0.259445 -3.53577529 -0.28286202 0 0 Z " fill="#D2D3D2" transform="translate(251.125,94.25)"/>
<path d="M0 0 C0.99 0 1.98 0 3 0 C3.67305018 1.60149886 4.33822227 3.20631029 5 4.8125 C5.37125 5.70582031 5.7425 6.59914063 6.125 7.51953125 C7 10 7 10 7 13 C6.34 13 5.68 13 5 13 C5 12.01 5 11.02 5 10 C3.02 10 1.04 10 -1 10 C-1.33 10.99 -1.66 11.98 -2 13 C-2.66 13 -3.32 13 -4 13 C-3.52140759 11.39566191 -3.04210442 9.79153584 -2.5625 8.1875 C-2.29566406 7.29417969 -2.02882812 6.40085937 -1.75390625 5.48046875 C-1.19612127 3.64526945 -0.60655425 1.81966274 0 0 Z " fill="#949494" transform="translate(171,92)"/>
<path d="M0 0 C4.38635744 2.19317872 5.51256905 3.91350629 8 8 C8.33 5.36 8.66 2.72 9 0 C9.33 0 9.66 0 10 0 C10 4.29 10 8.58 10 13 C9.34 13 8.68 13 8 13 C6.7109375 11.25 6.7109375 11.25 5.375 9 C4.92898437 8.2575 4.48296875 7.515 4.0234375 6.75 C3.68570313 6.1725 3.34796875 5.595 3 5 C2.67 7.64 2.34 10.28 2 13 C1.34 13 0.68 13 0 13 C0 8.71 0 4.42 0 0 Z " fill="#D5D5D5" transform="translate(208,92)"/>
<path d="M0 0 C0.9075 0.165 1.815 0.33 2.75 0.5 C5.92546075 1.18096091 5.92546075 1.18096091 8.75 0.4375 C9.4925 0.293125 10.235 0.14875 11 0 C13 2 13 2 13.1953125 4.1640625 C13.17210937 4.97617188 13.14890625 5.78828125 13.125 6.625 C13.10695313 7.44226563 13.08890625 8.25953125 13.0703125 9.1015625 C13.03550781 10.04128906 13.03550781 10.04128906 13 11 C12.34 11 11.68 11 11 11 C10.67 8.36 10.34 5.72 10 3 C9.01 3 8.02 3 7 3 C6.67 5.64 6.34 8.28 6 11 C5.34 11 4.68 11 4 11 C3.87625 9.081875 3.87625 9.081875 3.75 7.125 C3.54130069 4.94666582 3.54130069 4.94666582 3 3 C1.07935207 1.4100567 1.07935207 1.4100567 -1 1 C-0.67 0.67 -0.34 0.34 0 0 Z " fill="#CECECE" transform="translate(314,94)"/>
<path d="M0 0 C3 0.125 3 0.125 4 1.125 C4.04080783 3.12458364 4.04254356 5.12545254 4 7.125 C1.125 7.75 1.125 7.75 -2 8.125 C-4 6.125 -4 6.125 -4.1875 3.5625 C-3.91067812 -0.03618446 -3.67800108 0.15325004 0 0 Z " fill="#F5F5F5" transform="translate(302,30.875)"/>
<path d="M0 0 C3 0.125 3 0.125 4 1.125 C4.04080783 3.12458364 4.04254356 5.12545254 4 7.125 C1.125 7.75 1.125 7.75 -2 8.125 C-4 6.125 -4 6.125 -4.1875 3.5625 C-3.91067812 -0.03618446 -3.67800108 0.15325004 0 0 Z " fill="#F5F5F5" transform="translate(252,30.875)"/>
<path d="M0 0 C1 1 1 1 1.09765625 3.06640625 C1.08605469 3.89011719 1.07445312 4.71382813 1.0625 5.5625 C1.05347656 6.38878906 1.04445312 7.21507813 1.03515625 8.06640625 C1.02355469 8.70449219 1.01195312 9.34257813 1 10 C0.34 10 -0.32 10 -1 10 C-1.33 7.36 -1.66 4.72 -2 2 C-2.99 2 -3.98 2 -5 2 C-5.33 4.64 -5.66 7.28 -6 10 C-6.66 10 -7.32 10 -8 10 C-8 6.7 -8 3.4 -8 0 C-4.69676014 -1.10107995 -3.29495231 -0.86709271 0 0 Z " fill="#CDCDCD" transform="translate(159,95)"/>
<path d="M0 0 C2.31 0 4.62 0 7 0 C7 0.33 7 0.66 7 1 C5.35 1 3.7 1 2 1 C2 2.32 2 3.64 2 5 C3.65 5 5.3 5 7 5 C7 5.66 7 6.32 7 7 C5.35 7 3.7 7 2 7 C2 8.65 2 10.3 2 12 C3.65 12 5.3 12 7 12 C7 12.33 7 12.66 7 13 C4.69 13 2.38 13 0 13 C0 8.71 0 4.42 0 0 Z " fill="#CDCECE" transform="translate(198,92)"/>
<path d="M0 0 C0.66 0 1.32 0 2 0 C2.66 2.31 3.32 4.62 4 7 C4.66 7 5.32 7 6 7 C6.185625 5.7934375 6.185625 5.7934375 6.375 4.5625 C6.58125 3.716875 6.7875 2.87125 7 2 C7.66 1.67 8.32 1.34 9 1 C8.37321829 4.66172475 7.35548154 7.8818995 5.9375 11.3125 C5.57527344 12.19550781 5.21304687 13.07851562 4.83984375 13.98828125 C4.42412109 14.98408203 4.42412109 14.98408203 4 16 C3.34 16 2.68 16 2 16 C2.226875 15.21625 2.45375 14.4325 2.6875 13.625 C3.11695428 8.6433304 1.63235458 4.66650517 0 0 Z " fill="#CDCDCD" transform="translate(366,94)"/>
<path d="M0 0 C3.375 -0.125 3.375 -0.125 7 0 C9 2 9 2 9.1953125 4.1640625 C9.17210937 4.97617188 9.14890625 5.78828125 9.125 6.625 C9.10695313 7.44226563 9.08890625 8.25953125 9.0703125 9.1015625 C9.03550781 10.04128906 9.03550781 10.04128906 9 11 C8.67 11 8.34 11 8 11 C7.67 8.36 7.34 5.72 7 3 C5.68 3 4.36 3 3 3 C2.67 5.64 2.34 8.28 2 11 C1.34 11 0.68 11 0 11 C0 7.37 0 3.74 0 0 Z " fill="#CBCBCB" transform="translate(355,94)"/>
<path d="M0 0 C3.63 0 7.26 0 11 0 C9.04297985 1.3046801 7.06417543 2.57742367 5.0625 3.8125 C2.06267968 5.9552288 0.14579544 8.02889862 -2 11 C-2.33 10.34 -2.66 9.68 -3 9 C-2.34 8.01 -1.68 7.02 -1 6 C-0.60986284 4.0103005 -0.26797351 2.00980131 0 0 Z " fill="#111312" transform="translate(140,0)"/>
<path d="M0 0 C0.66 0 1.32 0 2 0 C2 3.63 2 7.26 2 11 C-1.375 11.125 -1.375 11.125 -5 11 C-7 9 -7 9 -7.1953125 7.0546875 C-7.13020833 5.03645833 -7.06510417 3.01822917 -7 1 C-6.67 1 -6.34 1 -6 1 C-5.67 3.31 -5.34 5.62 -5 8 C-3.68 8 -2.36 8 -1 8 C-0.67 5.36 -0.34 2.72 0 0 Z " fill="#DEDEDE" transform="translate(265,94)"/>
<path d="M0 0 C0.05406122 1.93719378 0.09282025 3.87481921 0.125 5.8125 C0.14820313 6.89144531 0.17140625 7.97039062 0.1953125 9.08203125 C0 12 0 12 -2 15 C-5.125 15.1875 -5.125 15.1875 -8 15 C-8.66 13.68 -9.32 12.36 -10 11 C-7.69 11.33 -5.38 11.66 -3 12 C-1.62567543 8.18243176 -2.32024961 4.92744671 -3 1 C-1 0 -1 0 0 0 Z " fill="#EFF0EF" transform="translate(236,95)"/>
<path d="M0 0 C0.38218767 1.65614657 0.71395102 3.32457024 1 5 C0 6 0 6 -2.5 6.125 C-5 6 -5 6 -6 5 C-6.04063832 3.33382885 -6.042721 1.66611905 -6 0 C-3.50907189 -1.24546405 -2.58919267 -0.7767578 0 0 Z " fill="#111312" transform="translate(253,97)"/>
<path d="M0 0 C1.67542976 0.28604898 3.34385343 0.61781233 5 1 C5 2.98 5 4.96 5 7 C3.33388095 7.042721 1.66617115 7.04063832 0 7 C-1 6 -1 6 -1.125 3.5 C-1 1 -1 1 0 0 Z " fill="#0A0C0B" transform="translate(301,96)"/>
<path d="M0 0 C1.67542976 0.28604898 3.34385343 0.61781233 5 1 C5.042721 2.66611905 5.04063832 4.33382885 5 6 C4 7 4 7 1.4375 7.0625 C0.2309375 7.0315625 0.2309375 7.0315625 -1 7 C-1.04254356 5.00045254 -1.04080783 2.99958364 -1 1 C-0.67 0.67 -0.34 0.34 0 0 Z " fill="#0A0C0B" transform="translate(229,96)"/>
<path d="M0 0 C1.67542976 0.28604898 3.34385343 0.61781233 5 1 C5.042721 2.66611905 5.04063832 4.33382885 5 6 C4 7 4 7 1.4375 7.0625 C0.2309375 7.0315625 0.2309375 7.0315625 -1 7 C-1.04254356 5.00045254 -1.04080783 2.99958364 -1 1 C-0.67 0.67 -0.34 0.34 0 0 Z " fill="#0B0D0C" transform="translate(141,96)"/>
<path d="M0 0 C1.67542976 0.28604898 3.34385343 0.61781233 5 1 C5 2.65 5 4.3 5 6 C3.34385343 6.38218767 1.67542976 6.71395102 0 7 C-1 6 -1 6 -1.125 3.5 C-1 1 -1 1 0 0 Z " fill="#060807" transform="translate(345,96)"/>
<path d="M0 0 C1.67542976 0.28604898 3.34385343 0.61781233 5 1 C5 2.65 5 4.3 5 6 C3.34385343 6.38218767 1.67542976 6.71395102 0 7 C-1 6 -1 6 -1.125 3.5 C-1 1 -1 1 0 0 Z " fill="#070707" transform="translate(333,96)"/>
<path d="M0 0 C1.67542976 0.28604898 3.34385343 0.61781233 5 1 C5 2.65 5 4.3 5 6 C3.34385343 6.38218767 1.67542976 6.71395102 0 7 C-1 6 -1 6 -1.125 3.5 C-1 1 -1 1 0 0 Z " fill="#060807" transform="translate(273,96)"/>
<path d="M0 0 C0.66 0.33 1.32 0.66 2 1 C2.625 4.0625 2.625 4.0625 3 7 C2.34 7 1.68 7 1 7 C1 6.01 1 5.02 1 4 C-0.98 4 -2.96 4 -5 4 C-5.33 4.99 -5.66 5.98 -6 7 C-6.66 7 -7.32 7 -8 7 C-7.34 5.02 -6.68 3.04 -6 1 C-5.67 1.66 -5.34 2.32 -5 3 C-3.35 3 -1.7 3 0 3 C0 2.01 0 1.02 0 0 Z " fill="#D8D8D8" transform="translate(175,98)"/>
<path d="M0 0 C-2.50248865 1.66832577 -4.41149187 2.62381674 -7.1875 3.625 C-8.26064453 4.01558594 -8.26064453 4.01558594 -9.35546875 4.4140625 C-9.89816406 4.60742188 -10.44085938 4.80078125 -11 5 C-11.33 4.01 -11.66 3.02 -12 2 C-4.71428571 -1.57142857 -4.71428571 -1.57142857 0 0 Z " fill="#444545" transform="translate(106,18)"/>
<path d="M0 0 C0.99 0.33 1.98 0.66 3 1 C2.67 3.97 2.34 6.94 2 10 C1.34 10 0.68 10 0 10 C-2 8 -2 8 -2.25 5.5625 C-2 3 -2 3 0 0 Z " fill="#8A8B8A" transform="translate(310,95)"/>
<path d="M0 0 C2.9375 0.375 2.9375 0.375 6 1 C7.33332095 3.6666419 6.67102033 5.16680303 6 8 C5.67 8 5.34 8 5 8 C4.67 6.35 4.34 4.7 4 3 C2.68 2.67 1.36 2.34 0 2 C0 1.34 0 0.68 0 0 Z " fill="#B2B2B2" transform="translate(301,94)"/>
<path d="M0 0 C2.35171131 0.59861742 4.6859378 1.26924352 7 2 C7.33 2.66 7.66 3.32 8 4 C6.02 4 4.04 4 2 4 C1.34 2.68 0.68 1.36 0 0 Z " fill="#B1B2B1" transform="translate(226,106)"/>
</svg>
